<svg width="93" height="32" viewBox="0 0 93 32" fill="none" xmlns="http://www.w3.org/2000/svg">
<path d="M65.7713 1.70289V31.8905H57.5002V1.70289H65.7713Z" fill="#0E0E0E"/>
<path d="M52.6349 9.84137V31.8905H44.3637V9.84137H52.6349ZM48.5214 0C49.6419 0 50.6076 0.398078 51.4185 1.19423C52.2442 1.97565 52.657 2.90449 52.657 3.98078C52.657 5.13078 52.2663 6.07437 51.4849 6.81156C50.7182 7.54874 49.7304 7.91733 48.5214 7.91733C47.3124 7.91733 46.3173 7.54874 45.5358 6.81156C44.7692 6.07437 44.3858 5.13078 44.3858 3.98078C44.3858 2.90449 44.7913 1.97565 45.6022 1.19423C46.4278 0.398078 47.4009 0 48.5214 0Z" fill="#0E0E0E"/>
<path d="M40.7145 14.7288V23.3981H37.0212V31.8904H28.75V13.1586C28.75 11.0503 29.1112 9.25158 29.8337 7.76247C30.7478 5.86054 32.1337 4.31246 33.9914 3.11823C35.8638 1.90925 37.81 1.30476 39.8298 1.30476L40.7145 1.32688V9.99613C40.5228 9.98139 40.3827 9.97402 40.2943 9.97402C39.2475 9.97402 38.4366 10.3205 37.8616 11.0134C37.3013 11.7064 37.0212 12.6942 37.0212 13.9769V14.7288H40.7145Z" fill="#0E0E0E"/>
<path d="M23.8846 9.84137V31.8905H15.6134V9.84137H23.8846ZM19.7711 0C20.8916 0 21.8573 0.398078 22.6682 1.19423C23.4939 1.97565 23.9067 2.90449 23.9067 3.98078C23.9067 5.13078 23.516 6.07437 22.7346 6.81156C21.9679 7.54874 20.9801 7.91733 19.7711 7.91733C18.5621 7.91733 17.5669 7.54874 16.7855 6.81156C16.0189 6.07437 15.6355 5.13078 15.6355 3.98078C15.6355 2.90449 16.041 1.97565 16.8519 1.19423C17.6775 0.398078 18.6506 0 19.7711 0Z" fill="#0E0E0E"/>
<path d="M11.9645 14.7288V23.3981H8.27117V31.8904H0V13.1586C0 11.0503 0.361219 9.25158 1.08366 7.76247C1.99776 5.86054 3.38366 4.31246 5.24136 3.11823C7.1138 1.90925 9.05996 1.30476 11.0798 1.30476L11.9645 1.32688V9.99613C11.7728 9.98139 11.6327 9.97402 11.5443 9.97402C10.4975 9.97402 9.68656 10.3205 9.11156 11.0134C8.5513 11.7064 8.27117 12.6942 8.27117 13.9769V14.7288H11.9645Z" fill="#0E0E0E"/>
<path d="M79.1485 9.90899C79.2394 9.76917 79.4264 9.72948 79.5663 9.82035L85.3895 13.6047C85.5293 13.6955 85.569 13.8825 85.4781 14.0224L76.9868 27.0887C76.8959 27.2285 76.7089 27.2682 76.5691 27.1773L70.7459 23.393C70.606 23.3021 70.5663 23.1151 70.6572 22.9753L79.1485 9.90899Z" fill="#FDB913"/>
<path fill-rule="evenodd" clip-rule="evenodd" d="M80.652 25.961C83.7371 25.961 86.238 23.46 86.238 20.3749C86.238 17.2898 83.7371 14.7889 80.652 14.7889C77.5669 14.7889 75.0659 17.2898 75.0659 20.3749C75.0659 23.46 77.5669 25.961 80.652 25.961ZM80.652 32C87.0723 32 92.277 26.7953 92.277 20.3749C92.277 13.9546 87.0723 8.74989 80.652 8.74989C74.2316 8.74989 69.0269 13.9546 69.0269 20.3749C69.0269 26.7953 74.2316 32 80.652 32Z" fill="#0E0E0E"/>
</svg>
